<?xml version="1.0" encoding="UTF-8" standalone="no"?>
<!DOCTYPE svg PUBLIC "-//W3C//DTD SVG 1.1//EN"
 "http://www.w3.org/Graphics/SVG/1.1/DTD/svg11.dtd">
<!-- Generated by graphviz version 2.40.1 (20161225.0304)
 -->
<!-- Title: dependencies Pages: 1 -->
<svg width="2263pt" height="284pt"
 viewBox="0.00 0.00 2263.00 284.00" xmlns="http://www.w3.org/2000/svg" xmlns:xlink="http://www.w3.org/1999/xlink">
<g id="graph0" class="graph" transform="scale(1 1) rotate(0) translate(4 280)">
<title>dependencies</title>
<polygon fill="#ffffff" stroke="transparent" points="-4,4 -4,-280 2259,-280 2259,4 -4,4"/>
<text text-anchor="start" x="1106.5091" y="-42.4" font-family="sans-serif" font-weight="bold" font-size="14.00" fill="#000000">Legend</text>
<polygon fill="#ffffb3" stroke="transparent" points="893.5,-10 893.5,-30 913.5,-30 913.5,-10 893.5,-10"/>
<text text-anchor="start" x="917.129" y="-15.4" font-family="sans-serif" font-size="14.00" fill="#000000"> &#160;Declarations</text>
<polygon fill="#8dd3c7" stroke="transparent" points="1006.5,-10 1006.5,-30 1026.5,-30 1026.5,-10 1006.5,-10"/>
<text text-anchor="start" x="1030.2251" y="-15.4" font-family="sans-serif" font-size="14.00" fill="#000000"> &#160;Module</text>
<polygon fill="#80b1d3" stroke="transparent" points="1092.5,-10 1092.5,-30 1112.5,-30 1112.5,-10 1092.5,-10"/>
<text text-anchor="start" x="1116.2812" y="-15.4" font-family="sans-serif" font-size="14.00" fill="#000000"> &#160;Bootstrap</text>
<polygon fill="#fdb462" stroke="transparent" points="1189.5,-10 1189.5,-30 1209.5,-30 1209.5,-10 1189.5,-10"/>
<text text-anchor="start" x="1213.1732" y="-15.4" font-family="sans-serif" font-size="14.00" fill="#000000"> &#160;Providers</text>
<polygon fill="#fb8072" stroke="transparent" points="1285.5,-10 1285.5,-30 1305.5,-30 1305.5,-10 1285.5,-10"/>
<text text-anchor="start" x="1309.2258" y="-15.4" font-family="sans-serif" font-size="14.00" fill="#000000"> &#160;Exports</text>
<g id="clust1" class="cluster">
<title>cluster_AntraUiModule</title>
<polygon fill="none" stroke="#000000" stroke-dasharray="1,5" points="8,-70 8,-268 2247,-268 2247,-70 8,-70"/>
</g>
<g id="clust2" class="cluster">
<title>cluster_AntraUiModule_declarations</title>
<polygon fill="none" stroke="#000000" points="16,-78 16,-130 2239,-130 2239,-78 16,-78"/>
</g>
<g id="clust17" class="cluster">
<title>cluster_AntraUiModule_exports</title>
<polygon fill="none" stroke="#000000" points="423,-208 423,-260 2167,-260 2167,-208 423,-208"/>
</g>
<!-- AntraWidgetDirective -->
<g id="node1" class="node">
<title>AntraWidgetDirective</title>
<polygon fill="#ffffb3" stroke="#000000" points="2230.6657,-122 2089.3343,-122 2089.3343,-86 2230.6657,-86 2230.6657,-122"/>
<text text-anchor="middle" x="2160" y="-99.8" font-family="Times,serif" font-size="14.00" fill="#000000">AntraWidgetDirective</text>
</g>
<!-- AntraUiModule -->
<g id="node14" class="node">
<title>AntraUiModule</title>
<polygon fill="#8dd3c7" stroke="#000000" points="1443.9202,-187 1440.9202,-191 1419.9202,-191 1416.9202,-187 1338.0798,-187 1338.0798,-151 1443.9202,-151 1443.9202,-187"/>
<text text-anchor="middle" x="1391" y="-164.8" font-family="Times,serif" font-size="14.00" fill="#000000">AntraUiModule</text>
</g>
<!-- AntraWidgetDirective&#45;&gt;AntraUiModule -->
<g id="edge1" class="edge">
<title>AntraWidgetDirective&#45;&gt;AntraUiModule</title>
<path fill="none" stroke="#000000" d="M2136.0276,-122.308C2136.0276,-142.1455 2136.0276,-171 2136.0276,-171 2136.0276,-171 1453.9833,-171 1453.9833,-171"/>
<polygon fill="#000000" stroke="#000000" points="1453.9833,-167.5001 1443.9833,-171 1453.9832,-174.5001 1453.9833,-167.5001"/>
</g>
<!-- AntraWidgetDirective&#45;&gt;AntraUiModule -->
<g id="edge2" class="edge">
<title>AntraWidgetDirective&#45;&gt;AntraUiModule</title>
<path fill="none" stroke="#000000" d="M2112.7224,-122.1686C2112.7224,-141.0898 2112.7224,-168 2112.7224,-168 2112.7224,-168 1453.7776,-168 1453.7776,-168"/>
<polygon fill="#000000" stroke="#000000" points="1453.7776,-164.5001 1443.7776,-168 1453.7775,-171.5001 1453.7776,-164.5001"/>
</g>
<!-- ButtonComponent -->
<g id="node2" class="node">
<title>ButtonComponent</title>
<polygon fill="#ffffb3" stroke="#000000" points="2071.9511,-122 1952.0489,-122 1952.0489,-86 2071.9511,-86 2071.9511,-122"/>
<text text-anchor="middle" x="2012" y="-99.8" font-family="Times,serif" font-size="14.00" fill="#000000">ButtonComponent</text>
</g>
<!-- ButtonComponent&#45;&gt;AntraUiModule -->
<g id="edge3" class="edge">
<title>ButtonComponent&#45;&gt;AntraUiModule</title>
<path fill="none" stroke="#000000" d="M1981.7417,-122.302C1981.7417,-140.2699 1981.7417,-165 1981.7417,-165 1981.7417,-165 1453.9443,-165 1453.9443,-165"/>
<polygon fill="#000000" stroke="#000000" points="1453.9443,-161.5001 1443.9443,-165 1453.9442,-168.5001 1453.9443,-161.5001"/>
</g>
<!-- ButtonComponent&#45;&gt;AntraUiModule -->
<g id="edge4" class="edge">
<title>ButtonComponent&#45;&gt;AntraUiModule</title>
<path fill="none" stroke="#000000" d="M1967.0083,-122.0225C1967.0083,-139.3734 1967.0083,-163 1967.0083,-163 1967.0083,-163 1453.9002,-163 1453.9002,-163"/>
<polygon fill="#000000" stroke="#000000" points="1453.9002,-159.5001 1443.9002,-163 1453.9002,-166.5001 1453.9002,-159.5001"/>
</g>
<!-- ChangePasswordComponent -->
<g id="node3" class="node">
<title>ChangePasswordComponent</title>
<polygon fill="#ffffb3" stroke="#000000" points="1933.752,-122 1756.248,-122 1756.248,-86 1933.752,-86 1933.752,-122"/>
<text text-anchor="middle" x="1845" y="-99.8" font-family="Times,serif" font-size="14.00" fill="#000000">ChangePasswordComponent</text>
</g>
<!-- ChangePasswordComponent&#45;&gt;AntraUiModule -->
<g id="edge5" class="edge">
<title>ChangePasswordComponent&#45;&gt;AntraUiModule</title>
<path fill="none" stroke="#000000" d="M1805.875,-122.027C1805.875,-138.3976 1805.875,-160 1805.875,-160 1805.875,-160 1453.9656,-160 1453.9656,-160"/>
<polygon fill="#000000" stroke="#000000" points="1453.9656,-156.5001 1443.9656,-160 1453.9656,-163.5001 1453.9656,-156.5001"/>
</g>
<!-- EmailPatternDirective -->
<g id="node4" class="node">
<title>EmailPatternDirective</title>
<polygon fill="#ffffb3" stroke="#000000" points="1738.6755,-122 1597.3245,-122 1597.3245,-86 1738.6755,-86 1738.6755,-122"/>
<text text-anchor="middle" x="1668" y="-99.8" font-family="Times,serif" font-size="14.00" fill="#000000">EmailPatternDirective</text>
</g>
<!-- EmailPatternDirective&#45;&gt;AntraUiModule -->
<g id="edge6" class="edge">
<title>EmailPatternDirective&#45;&gt;AntraUiModule</title>
<path fill="none" stroke="#000000" d="M1626.7751,-122.2396C1626.7751,-137.5706 1626.7751,-157 1626.7751,-157 1626.7751,-157 1453.9125,-157 1453.9125,-157"/>
<polygon fill="#000000" stroke="#000000" points="1453.9126,-153.5001 1443.9125,-157 1453.9125,-160.5001 1453.9126,-153.5001"/>
</g>
<!-- LoginComponent -->
<g id="node5" class="node">
<title>LoginComponent</title>
<polygon fill="#ffffb3" stroke="#000000" points="1579.2758,-122 1464.7242,-122 1464.7242,-86 1579.2758,-86 1579.2758,-122"/>
<text text-anchor="middle" x="1522" y="-99.8" font-family="Times,serif" font-size="14.00" fill="#000000">LoginComponent</text>
</g>
<!-- LoginComponent&#45;&gt;AntraUiModule -->
<g id="edge7" class="edge">
<title>LoginComponent&#45;&gt;AntraUiModule</title>
<path fill="none" stroke="#000000" d="M1492.4024,-122.0511C1492.4024,-136.373 1492.4024,-154 1492.4024,-154 1492.4024,-154 1453.7802,-154 1453.7802,-154"/>
<polygon fill="#000000" stroke="#000000" points="1453.7802,-150.5001 1443.7802,-154 1453.7802,-157.5001 1453.7802,-150.5001"/>
</g>
<!-- LogoComponent -->
<g id="node6" class="node">
<title>LogoComponent</title>
<polygon fill="#ffffb3" stroke="#000000" points="1446.3851,-122 1335.6149,-122 1335.6149,-86 1446.3851,-86 1446.3851,-122"/>
<text text-anchor="middle" x="1391" y="-99.8" font-family="Times,serif" font-size="14.00" fill="#000000">LogoComponent</text>
</g>
<!-- LogoComponent&#45;&gt;AntraUiModule -->
<g id="edge8" class="edge">
<title>LogoComponent&#45;&gt;AntraUiModule</title>
<path fill="none" stroke="#000000" d="M1408.5699,-122.1061C1408.5699,-122.1061 1408.5699,-140.991 1408.5699,-140.991"/>
<polygon fill="#000000" stroke="#000000" points="1405.07,-140.9909 1408.5699,-150.991 1412.07,-140.991 1405.07,-140.9909"/>
</g>
<!-- LogoComponent&#45;&gt;AntraUiModule -->
<g id="edge9" class="edge">
<title>LogoComponent&#45;&gt;AntraUiModule</title>
<path fill="none" stroke="#000000" d="M1373.4301,-122.1061C1373.4301,-122.1061 1373.4301,-140.991 1373.4301,-140.991"/>
<polygon fill="#000000" stroke="#000000" points="1369.9302,-140.9909 1373.4301,-150.991 1376.9302,-140.991 1369.9302,-140.9909"/>
</g>
<!-- MatchPasswordDirective -->
<g id="node7" class="node">
<title>MatchPasswordDirective</title>
<polygon fill="#ffffb3" stroke="#000000" points="1317.5016,-122 1160.4984,-122 1160.4984,-86 1317.5016,-86 1317.5016,-122"/>
<text text-anchor="middle" x="1239" y="-99.8" font-family="Times,serif" font-size="14.00" fill="#000000">MatchPasswordDirective</text>
</g>
<!-- MatchPasswordDirective&#45;&gt;AntraUiModule -->
<g id="edge10" class="edge">
<title>MatchPasswordDirective&#45;&gt;AntraUiModule</title>
<path fill="none" stroke="#000000" d="M1267.9785,-122.0511C1267.9785,-136.373 1267.9785,-154 1267.9785,-154 1267.9785,-154 1328.1138,-154 1328.1138,-154"/>
<polygon fill="#000000" stroke="#000000" points="1328.1139,-157.5001 1338.1138,-154 1328.1138,-150.5001 1328.1139,-157.5001"/>
</g>
<!-- PasswordPatternDirective -->
<g id="node8" class="node">
<title>PasswordPatternDirective</title>
<polygon fill="#ffffb3" stroke="#000000" points="1142.8905,-122 981.1095,-122 981.1095,-86 1142.8905,-86 1142.8905,-122"/>
<text text-anchor="middle" x="1062" y="-99.8" font-family="Times,serif" font-size="14.00" fill="#000000">PasswordPatternDirective</text>
</g>
<!-- PasswordPatternDirective&#45;&gt;AntraUiModule -->
<g id="edge11" class="edge">
<title>PasswordPatternDirective&#45;&gt;AntraUiModule</title>
<path fill="none" stroke="#000000" d="M1062,-122.2396C1062,-137.5706 1062,-157 1062,-157 1062,-157 1328.1405,-157 1328.1405,-157"/>
<polygon fill="#000000" stroke="#000000" points="1328.1405,-160.5001 1338.1405,-157 1328.1404,-153.5001 1328.1405,-160.5001"/>
</g>
<!-- PasswordResetComponent -->
<g id="node9" class="node">
<title>PasswordResetComponent</title>
<polygon fill="#ffffb3" stroke="#000000" points="963.087,-122 796.913,-122 796.913,-86 963.087,-86 963.087,-122"/>
<text text-anchor="middle" x="880" y="-99.8" font-family="Times,serif" font-size="14.00" fill="#000000">PasswordResetComponent</text>
</g>
<!-- PasswordResetComponent&#45;&gt;AntraUiModule -->
<g id="edge12" class="edge">
<title>PasswordResetComponent&#45;&gt;AntraUiModule</title>
<path fill="none" stroke="#000000" d="M957.6689,-122.0091C957.6689,-138.0494 957.6689,-159 957.6689,-159 957.6689,-159 1327.8651,-159 1327.8651,-159"/>
<polygon fill="#000000" stroke="#000000" points="1327.8651,-162.5001 1337.8651,-159 1327.8651,-155.5001 1327.8651,-162.5001"/>
</g>
<!-- PasswordResetSuccessfulComponent -->
<g id="node10" class="node">
<title>PasswordResetSuccessfulComponent</title>
<polygon fill="#ffffb3" stroke="#000000" points="778.9538,-122 553.0462,-122 553.0462,-86 778.9538,-86 778.9538,-122"/>
<text text-anchor="middle" x="666" y="-99.8" font-family="Times,serif" font-size="14.00" fill="#000000">PasswordResetSuccessfulComponent</text>
</g>
<!-- PasswordResetSuccessfulComponent&#45;&gt;AntraUiModule -->
<g id="edge13" class="edge">
<title>PasswordResetSuccessfulComponent&#45;&gt;AntraUiModule</title>
<path fill="none" stroke="#000000" d="M766.6157,-122.0336C766.6157,-139.0597 766.6157,-162 766.6157,-162 766.6157,-162 1328.0347,-162 1328.0347,-162"/>
<polygon fill="#000000" stroke="#000000" points="1328.0347,-165.5001 1338.0347,-162 1328.0347,-158.5001 1328.0347,-165.5001"/>
</g>
<!-- ProgressSpinnerComponent -->
<g id="node11" class="node">
<title>ProgressSpinnerComponent</title>
<polygon fill="#ffffb3" stroke="#000000" points="534.5884,-122 361.4116,-122 361.4116,-86 534.5884,-86 534.5884,-122"/>
<text text-anchor="middle" x="448" y="-99.8" font-family="Times,serif" font-size="14.00" fill="#000000">ProgressSpinnerComponent</text>
</g>
<!-- ProgressSpinnerComponent&#45;&gt;AntraUiModule -->
<g id="edge14" class="edge">
<title>ProgressSpinnerComponent&#45;&gt;AntraUiModule</title>
<path fill="none" stroke="#000000" d="M482.8196,-122.002C482.8196,-139.6754 482.8196,-164 482.8196,-164 482.8196,-164 1328.2469,-164 1328.2469,-164"/>
<polygon fill="#000000" stroke="#000000" points="1328.2469,-167.5001 1338.2469,-164 1328.2469,-160.5001 1328.2469,-167.5001"/>
</g>
<!-- RaisedButtonComponent -->
<g id="node12" class="node">
<title>RaisedButtonComponent</title>
<polygon fill="#ffffb3" stroke="#000000" points="343.5518,-122 186.4482,-122 186.4482,-86 343.5518,-86 343.5518,-122"/>
<text text-anchor="middle" x="265" y="-99.8" font-family="Times,serif" font-size="14.00" fill="#000000">RaisedButtonComponent</text>
</g>
<!-- RaisedButtonComponent&#45;&gt;AntraUiModule -->
<g id="edge15" class="edge">
<title>RaisedButtonComponent&#45;&gt;AntraUiModule</title>
<path fill="none" stroke="#000000" d="M238.7415,-122.1061C238.7415,-141.3391 238.7415,-169 238.7415,-169 238.7415,-169 1328.116,-169 1328.116,-169"/>
<polygon fill="#000000" stroke="#000000" points="1328.116,-172.5001 1338.116,-169 1328.116,-165.5001 1328.116,-172.5001"/>
</g>
<!-- RaisedButtonComponent&#45;&gt;AntraUiModule -->
<g id="edge16" class="edge">
<title>RaisedButtonComponent&#45;&gt;AntraUiModule</title>
<path fill="none" stroke="#000000" d="M291.2585,-122.2222C291.2585,-140.8285 291.2585,-167 291.2585,-167 291.2585,-167 1327.9572,-167 1327.9572,-167"/>
<polygon fill="#000000" stroke="#000000" points="1327.9572,-170.5001 1337.9572,-167 1327.9571,-163.5001 1327.9572,-170.5001"/>
</g>
<!-- SidenavbarComponent -->
<g id="node13" class="node">
<title>SidenavbarComponent</title>
<polygon fill="#ffffb3" stroke="#000000" points="168.3103,-122 23.6897,-122 23.6897,-86 168.3103,-86 168.3103,-122"/>
<text text-anchor="middle" x="96" y="-99.8" font-family="Times,serif" font-size="14.00" fill="#000000">SidenavbarComponent</text>
</g>
<!-- SidenavbarComponent&#45;&gt;AntraUiModule -->
<g id="edge17" class="edge">
<title>SidenavbarComponent&#45;&gt;AntraUiModule</title>
<path fill="none" stroke="#000000" d="M96,-122.2228C96,-142.3652 96,-172 96,-172 96,-172 1328.2261,-172 1328.2261,-172"/>
<polygon fill="#000000" stroke="#000000" points="1328.2261,-175.5001 1338.2261,-172 1328.226,-168.5001 1328.2261,-175.5001"/>
</g>
<!-- AntraWidgetDirective  -->
<g id="node15" class="node">
<title>AntraWidgetDirective </title>
<polygon fill="#fb8072" stroke="#000000" points="2159.166,-252 2014.834,-252 2014.834,-216 2159.166,-216 2159.166,-252"/>
<text text-anchor="middle" x="2087" y="-229.8" font-family="Times,serif" font-size="14.00" fill="#000000">AntraWidgetDirective </text>
</g>
<!-- AntraUiModule&#45;&gt;AntraWidgetDirective  -->
<g id="edge18" class="edge">
<title>AntraUiModule&#45;&gt;AntraWidgetDirective </title>
<path fill="none" stroke="#000000" stroke-dasharray="5,2" d="M1443.8195,-174C1599.0849,-174 2043.1962,-174 2043.1962,-174 2043.1962,-174 2043.1962,-205.998 2043.1962,-205.998"/>
<polygon fill="#000000" stroke="#000000" points="2039.6962,-205.998 2043.1962,-215.998 2046.6962,-205.9981 2039.6962,-205.998"/>
</g>
<!-- ButtonComponent  -->
<g id="node16" class="node">
<title>ButtonComponent </title>
<polygon fill="#fb8072" stroke="#000000" points="1996.4502,-252 1873.5498,-252 1873.5498,-216 1996.4502,-216 1996.4502,-252"/>
<text text-anchor="middle" x="1935" y="-229.8" font-family="Times,serif" font-size="14.00" fill="#000000">ButtonComponent </text>
</g>
<!-- AntraUiModule&#45;&gt;ButtonComponent  -->
<g id="edge19" class="edge">
<title>AntraUiModule&#45;&gt;ButtonComponent </title>
<path fill="none" stroke="#000000" stroke-dasharray="5,2" d="M1443.8415,-179C1572.8928,-179 1893.6419,-179 1893.6419,-179 1893.6419,-179 1893.6419,-205.9909 1893.6419,-205.9909"/>
<polygon fill="#000000" stroke="#000000" points="1890.142,-205.9909 1893.6419,-215.9909 1897.142,-205.991 1890.142,-205.9909"/>
</g>
<!-- AntraUiModule&#45;&gt;ButtonComponent  -->
<g id="edge20" class="edge">
<title>AntraUiModule&#45;&gt;ButtonComponent </title>
<path fill="none" stroke="#000000" stroke-dasharray="5,2" d="M1444.0017,-176C1576.9022,-176 1913.7589,-176 1913.7589,-176 1913.7589,-176 1913.7589,-205.9664 1913.7589,-205.9664"/>
<polygon fill="#000000" stroke="#000000" points="1910.259,-205.9663 1913.7589,-215.9664 1917.259,-205.9664 1910.259,-205.9663"/>
</g>
<!-- ChangePasswordComponent  -->
<g id="node17" class="node">
<title>ChangePasswordComponent </title>
<polygon fill="#fb8072" stroke="#000000" points="1855.752,-252 1674.248,-252 1674.248,-216 1855.752,-216 1855.752,-252"/>
<text text-anchor="middle" x="1765" y="-229.8" font-family="Times,serif" font-size="14.00" fill="#000000">ChangePasswordComponent </text>
</g>
<!-- AntraUiModule&#45;&gt;ChangePasswordComponent  -->
<g id="edge21" class="edge">
<title>AntraUiModule&#45;&gt;ChangePasswordComponent </title>
<path fill="none" stroke="#000000" stroke-dasharray="5,2" d="M1443.8044,-182C1533.6141,-182 1706.4809,-182 1706.4809,-182 1706.4809,-182 1706.4809,-205.8129 1706.4809,-205.8129"/>
<polygon fill="#000000" stroke="#000000" points="1702.981,-205.8129 1706.4809,-215.8129 1709.981,-205.813 1702.981,-205.8129"/>
</g>
<!-- LoginComponent  -->
<g id="node18" class="node">
<title>LoginComponent </title>
<polygon fill="#fb8072" stroke="#000000" points="1656.2759,-252 1537.7241,-252 1537.7241,-216 1656.2759,-216 1656.2759,-252"/>
<text text-anchor="middle" x="1597" y="-229.8" font-family="Times,serif" font-size="14.00" fill="#000000">LoginComponent </text>
</g>
<!-- AntraUiModule&#45;&gt;LoginComponent  -->
<g id="edge22" class="edge">
<title>AntraUiModule&#45;&gt;LoginComponent </title>
<path fill="none" stroke="#000000" stroke-dasharray="5,2" d="M1444.0376,-185C1493.1465,-185 1558.625,-185 1558.625,-185 1558.625,-185 1558.625,-205.7542 1558.625,-205.7542"/>
<polygon fill="#000000" stroke="#000000" points="1555.1251,-205.7542 1558.625,-215.7542 1562.1251,-205.7542 1555.1251,-205.7542"/>
</g>
<!-- LogoComponent  -->
<g id="node19" class="node">
<title>LogoComponent </title>
<polygon fill="#fb8072" stroke="#000000" points="1520.3857,-252 1405.6143,-252 1405.6143,-216 1520.3857,-216 1520.3857,-252"/>
<text text-anchor="middle" x="1463" y="-229.8" font-family="Times,serif" font-size="14.00" fill="#000000">LogoComponent </text>
</g>
<!-- AntraUiModule&#45;&gt;LogoComponent  -->
<g id="edge23" class="edge">
<title>AntraUiModule&#45;&gt;LogoComponent </title>
<path fill="none" stroke="#000000" stroke-dasharray="5,2" d="M1424.7586,-187.1061C1424.7586,-187.1061 1424.7586,-205.991 1424.7586,-205.991"/>
<polygon fill="#000000" stroke="#000000" points="1421.2587,-205.9909 1424.7586,-215.991 1428.2587,-205.991 1421.2587,-205.9909"/>
</g>
<!-- PasswordResetComponent  -->
<g id="node20" class="node">
<title>PasswordResetComponent </title>
<polygon fill="#fb8072" stroke="#000000" points="1387.5875,-252 1218.4125,-252 1218.4125,-216 1387.5875,-216 1387.5875,-252"/>
<text text-anchor="middle" x="1303" y="-229.8" font-family="Times,serif" font-size="14.00" fill="#000000">PasswordResetComponent </text>
</g>
<!-- AntraUiModule&#45;&gt;PasswordResetComponent  -->
<g id="edge24" class="edge">
<title>AntraUiModule&#45;&gt;PasswordResetComponent </title>
<path fill="none" stroke="#000000" stroke-dasharray="5,2" d="M1363.0419,-187.1061C1363.0419,-187.1061 1363.0419,-205.991 1363.0419,-205.991"/>
<polygon fill="#000000" stroke="#000000" points="1359.542,-205.9909 1363.0419,-215.991 1366.542,-205.991 1359.542,-205.9909"/>
</g>
<!-- PasswordResetSuccessfulComponent  -->
<g id="node21" class="node">
<title>PasswordResetSuccessfulComponent </title>
<polygon fill="#fb8072" stroke="#000000" points="1199.9542,-252 970.0458,-252 970.0458,-216 1199.9542,-216 1199.9542,-252"/>
<text text-anchor="middle" x="1085" y="-229.8" font-family="Times,serif" font-size="14.00" fill="#000000">PasswordResetSuccessfulComponent </text>
</g>
<!-- AntraUiModule&#45;&gt;PasswordResetSuccessfulComponent  -->
<g id="edge25" class="edge">
<title>AntraUiModule&#45;&gt;PasswordResetSuccessfulComponent </title>
<path fill="none" stroke="#000000" stroke-dasharray="5,2" d="M1338.0252,-185C1275.5194,-185 1179.9883,-185 1179.9883,-185 1179.9883,-185 1179.9883,-205.7542 1179.9883,-205.7542"/>
<polygon fill="#000000" stroke="#000000" points="1176.4883,-205.7542 1179.9883,-215.7542 1183.4883,-205.7542 1176.4883,-205.7542"/>
</g>
<!-- ProgressSpinnerComponent  -->
<g id="node22" class="node">
<title>ProgressSpinnerComponent </title>
<polygon fill="#fb8072" stroke="#000000" points="952.0889,-252 775.9111,-252 775.9111,-216 952.0889,-216 952.0889,-252"/>
<text text-anchor="middle" x="864" y="-229.8" font-family="Times,serif" font-size="14.00" fill="#000000">ProgressSpinnerComponent </text>
</g>
<!-- AntraUiModule&#45;&gt;ProgressSpinnerComponent  -->
<g id="edge26" class="edge">
<title>AntraUiModule&#45;&gt;ProgressSpinnerComponent </title>
<path fill="none" stroke="#000000" stroke-dasharray="5,2" d="M1338.1655,-182C1206.559,-182 874.6254,-182 874.6254,-182 874.6254,-182 874.6254,-205.8129 874.6254,-205.8129"/>
<polygon fill="#000000" stroke="#000000" points="871.1254,-205.8129 874.6254,-215.8129 878.1254,-205.813 871.1254,-205.8129"/>
</g>
<!-- RaisedButtonComponent  -->
<g id="node23" class="node">
<title>RaisedButtonComponent </title>
<polygon fill="#fb8072" stroke="#000000" points="757.5512,-252 596.4488,-252 596.4488,-216 757.5512,-216 757.5512,-252"/>
<text text-anchor="middle" x="677" y="-229.8" font-family="Times,serif" font-size="14.00" fill="#000000">RaisedButtonComponent </text>
</g>
<!-- AntraUiModule&#45;&gt;RaisedButtonComponent  -->
<g id="edge27" class="edge">
<title>AntraUiModule&#45;&gt;RaisedButtonComponent </title>
<path fill="none" stroke="#000000" stroke-dasharray="5,2" d="M1338.2208,-180C1177.3142,-180 703.8419,-180 703.8419,-180 703.8419,-180 703.8419,-205.7181 703.8419,-205.7181"/>
<polygon fill="#000000" stroke="#000000" points="700.342,-205.718 703.8419,-215.7181 707.342,-205.7181 700.342,-205.718"/>
</g>
<!-- AntraUiModule&#45;&gt;RaisedButtonComponent  -->
<g id="edge28" class="edge">
<title>AntraUiModule&#45;&gt;RaisedButtonComponent </title>
<path fill="none" stroke="#000000" stroke-dasharray="5,2" d="M1338.0178,-177C1168.4571,-177 650.1581,-177 650.1581,-177 650.1581,-177 650.1581,-205.9648 650.1581,-205.9648"/>
<polygon fill="#000000" stroke="#000000" points="646.6582,-205.9648 650.1581,-215.9648 653.6582,-205.9649 646.6582,-205.9648"/>
</g>
<!-- SidenavbarComponent  -->
<g id="node24" class="node">
<title>SidenavbarComponent </title>
<polygon fill="#fb8072" stroke="#000000" points="578.8101,-252 431.1899,-252 431.1899,-216 578.8101,-216 578.8101,-252"/>
<text text-anchor="middle" x="505" y="-229.8" font-family="Times,serif" font-size="14.00" fill="#000000">SidenavbarComponent </text>
</g>
<!-- AntraUiModule&#45;&gt;SidenavbarComponent  -->
<g id="edge29" class="edge">
<title>AntraUiModule&#45;&gt;SidenavbarComponent </title>
<path fill="none" stroke="#000000" stroke-dasharray="5,2" d="M1338.1352,-175C1156.0411,-175 565.9641,-175 565.9641,-175 565.9641,-175 565.9641,-205.9775 565.9641,-205.9775"/>
<polygon fill="#000000" stroke="#000000" points="562.4641,-205.9774 565.9641,-215.9775 569.4641,-205.9775 562.4641,-205.9774"/>
</g>
</g>
</svg>
