<?xml version="1.0" encoding="utf-8"?>
<!-- Generator: Adobe Illustrator 25.0.0, SVG Export Plug-In . SVG Version: 6.00 Build 0)  -->
<svg version="1.1" id="Capa_1" xmlns="http://www.w3.org/2000/svg" xmlns:xlink="http://www.w3.org/1999/xlink" x="0px" y="0px"
	 viewBox="0 0 511.99 511.99" style="enable-background:new 0 0 511.99 511.99;" xml:space="preserve">
<style type="text/css">
	.st0{fill:#FFFFFF;}
</style>
<path class="st0" d="M461.6,43.08L312.27,0.41c-2.33-0.67-4.81-0.52-7.04,0.41l-256,106.67c-3.97,1.66-6.55,5.54-6.55,9.83v277.33
	c0,5.85,4.71,10.61,10.56,10.67c-5.89,0.04-10.64,4.84-10.6,10.73c0.03,4.58,2.98,8.64,7.34,10.07l256,85.33
	c1.09,0.35,2.23,0.53,3.37,0.53c0.99-0.01,1.97-0.15,2.92-0.43l149.33-42.67c4.58-1.3,7.74-5.48,7.74-10.24V53.32
	C469.34,48.56,466.18,44.38,461.6,43.08z M58.13,404.19l64-32c3.61-1.81,5.89-5.5,5.89-9.54V136.33l192-48v357.89L54.97,405.45
	c-0.5-0.08-1.01-0.13-1.51-0.13C55.08,405.3,56.67,404.91,58.13,404.19z"/>
</svg>
