<?xml version="1.0" encoding="utf-8"?>
<!-- Generator: Adobe Illustrator 25.0.0, SVG Export Plug-In . SVG Version: 6.00 Build 0)  -->
<svg version="1.1" id="Layer_1" xmlns="http://www.w3.org/2000/svg" xmlns:xlink="http://www.w3.org/1999/xlink" x="0px" y="0px"
	 viewBox="0 0 24 24" style="enable-background:new 0 0 24 24;" xml:space="preserve">
<style type="text/css">
	.st0{fill:#62D2F9;}
	.st1{fill:#F8A940;}
</style>
<g id="Group_1023" transform="translate(-18.437 -362.769)">
	<g id="Group_1018" transform="translate(26.653 362.769)">
		<path id="Path_821" class="st0" d="M4.4,8.98C2.02,9.1,0,7.28-0.12,4.9c-0.12-2.38,1.71-4.4,4.08-4.52
			c2.38-0.12,4.4,1.71,4.52,4.08c0,0.07,0.01,0.14,0.01,0.21C8.54,6.99,6.72,8.92,4.4,8.98z M4.4,1.24C2.5,1.12,0.86,2.56,0.73,4.46
			S2.05,8,3.95,8.12C5.85,8.25,7.49,6.8,7.62,4.9c0-0.07,0.01-0.15,0.01-0.22C7.68,2.84,6.24,1.3,4.4,1.24z"/>
	</g>
	<g id="Group_1019" transform="translate(18.437 372.307)">
		<path id="Path_822" class="st0" d="M5.43,4.92c-1.19-0.01-2.36-0.2-3.49-0.57C1.89,4.33,1.86,4.29,1.86,4.24V2
			c0-0.03,0.01-0.06,0.03-0.08L3.5,0.31c0.16-0.18,0.15-0.45-0.03-0.61c-0.16-0.15-0.42-0.15-0.58,0L1.28,1.32
			C1.1,1.5,1,1.75,1,2.01v2.24c0,0.42,0.27,0.79,0.67,0.92c1.23,0.4,2.51,0.61,3.81,0.61H5.5C5.47,5.49,5.45,5.2,5.43,4.92z"/>
	</g>
	<g id="Group_1020" transform="translate(20.216 366.525)">
		<path id="Path_823" class="st0" d="M3.59,5.82C2,5.89,0.65,4.67,0.58,3.08s1.15-2.94,2.74-3.01C4.9-0.01,6.25,1.21,6.33,2.8
			c0,0.05,0,0.09,0,0.14C6.36,4.49,5.14,5.77,3.59,5.82z M3.59,0.92C2.48,0.85,1.52,1.69,1.44,2.8C1.37,3.91,2.21,4.87,3.32,4.95
			c1.11,0.08,2.07-0.76,2.15-1.87c0-0.04,0-0.09,0-0.13C5.5,1.87,4.66,0.96,3.59,0.92z"/>
	</g>
	<path id="Path_824" class="st0" d="M25.54,379.07c-0.17-0.06-0.29-0.22-0.29-0.41v-3.55c0-0.11,0.05-0.22,0.13-0.3l2.54-2.54
		c0.16-0.18,0.15-0.45-0.03-0.61c-0.16-0.15-0.42-0.15-0.58,0l-2.54,2.54c-0.24,0.24-0.38,0.57-0.38,0.92v3.55
		c0,0.56,0.35,1.05,0.88,1.22c1.83,0.59,3.73,0.91,5.65,0.95c-0.06-0.28-0.09-0.57-0.09-0.86
		C29.03,379.94,27.25,379.63,25.54,379.07z"/>
	<path id="Path_825" class="st0" d="M37.5,374.91c0-0.35-0.14-0.68-0.39-0.92l-2.38-2.33c-0.17-0.16-0.45-0.15-0.61,0.02
		c-0.16,0.17-0.16,0.43,0.01,0.6l2.38,2.33c0.08,0.08,0.13,0.19,0.13,0.31v0.17c0.29,0.06,0.58,0.14,0.86,0.25V374.91z"/>
	<g id="Group_1021" transform="translate(31.741 376.727)">
		<path id="Path_826" class="st0" d="M4.79,9.02c-2.71,0-4.91-2.2-4.91-4.91s2.2-4.91,4.91-4.91S9.7,1.41,9.7,4.11
			C9.69,6.82,7.5,9.02,4.79,9.02z M4.79,0.15c-2.19,0-3.97,1.78-3.97,3.97c0,2.19,1.78,3.97,3.97,3.97s3.97-1.78,3.97-3.97
			c0,0,0,0,0,0C8.76,1.92,6.98,0.15,4.79,0.15z"/>
	</g>
	<g id="Group_1022" transform="translate(34.742 379.655)">
		<path id="Path_827" class="st1" d="M2.06-1.04v1.96h1.89v0.5H2.06v1.98H1.52V1.43h-1.89v-0.5h1.89v-1.96L2.06-1.04z"/>
	</g>
</g>
</svg>
