<?xml version="1.0" encoding="utf-8"?>
<!-- Generator: Adobe Illustrator 25.0.0, SVG Export Plug-In . SVG Version: 6.00 Build 0)  -->
<svg version="1.1" id="Layer_1" xmlns="http://www.w3.org/2000/svg" xmlns:xlink="http://www.w3.org/1999/xlink" x="0px" y="0px"
	 viewBox="0 0 24 24" style="enable-background:new 0 0 24 24;" xml:space="preserve">
<style type="text/css">
	.st0{fill:none;stroke:#62D2F9;}
	.st1{fill:none;}
	.st2{fill:none;stroke:#F9B65D;}
</style>
<path id="Path_874" class="st0" d="M20.49,13.04c0.05-0.36,0.07-0.72,0.07-1.07c0-0.36-0.02-0.72-0.08-1.07l2.32-1.8
	c0.21-0.17,0.26-0.46,0.14-0.7l-2.2-3.79c-0.13-0.24-0.42-0.34-0.67-0.25l-2.73,1.1c-0.57-0.44-1.19-0.8-1.85-1.07l-0.41-2.9
	C15.03,1.2,14.8,1,14.53,1h-4.38c-0.27,0-0.5,0.2-0.54,0.47L9.2,4.37C8.53,4.65,7.91,5.01,7.35,5.44l-2.73-1.1
	C4.36,4.25,4.08,4.36,3.95,4.6L1.77,8.39C1.62,8.62,1.68,8.93,1.9,9.09l2.32,1.8c-0.13,0.71-0.14,1.44-0.02,2.15l-2.32,1.8
	c-0.21,0.17-0.26,0.46-0.14,0.7l2.19,3.79c0.13,0.24,0.42,0.34,0.67,0.25l2.73-1.1c0.57,0.44,1.19,0.8,1.85,1.07l0.41,2.9
	c0.04,0.27,0.28,0.47,0.55,0.47h4.38c0.27,0,0.5-0.2,0.54-0.47l0.41-2.9c0.66-0.27,1.28-0.63,1.85-1.07l2.73,1.1
	c0.26,0.1,0.54-0.01,0.67-0.25l2.19-3.79c0.14-0.23,0.08-0.53-0.14-0.7L20.49,13.04z"/>
<g id="Ellipse_188" transform="translate(7.196 7.95)">
	<circle class="st1" cx="4.86" cy="4.28" r="3.22"/>
	<circle class="st2" cx="4.86" cy="4.28" r="2.69"/>
</g>
</svg>
