<?xml version="1.0" encoding="utf-8"?>
<!-- Generator: Adobe Illustrator 25.0.0, SVG Export Plug-In . SVG Version: 6.00 Build 0)  -->
<svg version="1.1" id="Layer_1" xmlns="http://www.w3.org/2000/svg" xmlns:xlink="http://www.w3.org/1999/xlink" x="0px" y="0px"
	 viewBox="0 0 24 24" style="enable-background:new 0 0 24 24;" xml:space="preserve">
<style type="text/css">
	.st0{fill:none;}
	.st1{fill:none;stroke:#62D2F9;}
	.st2{fill:none;stroke:#F9B65D;}
</style>
<g id="Group_1186" transform="translate(-18.378 -114)">
	<g id="Rectangle_471" transform="translate(18.378 114)">
		<path class="st0" d="M2,0.06h7c1.1,0,2,0.9,2,2v6c0,1.1-0.9,2-2,2H2c-1.1,0-2-0.9-2-2v-6C0,0.95,0.9,0.06,2,0.06z"/>
		<path class="st1" d="M2,0.56h7c0.83,0,1.5,0.67,1.5,1.5v6c0,0.83-0.67,1.5-1.5,1.5H2c-0.83,0-1.5-0.67-1.5-1.5v-6
			C0.5,1.23,1.17,0.56,2,0.56z"/>
	</g>
	<g id="Rectangle_473" transform="translate(31.378 128)">
		<path class="st0" d="M2,0.06h7c1.1,0,2,0.9,2,2v6c0,1.1-0.9,2-2,2H2c-1.1,0-2-0.9-2-2v-6C0,0.95,0.9,0.06,2,0.06z"/>
		<path class="st1" d="M2,0.56h7c0.83,0,1.5,0.67,1.5,1.5v6c0,0.83-0.67,1.5-1.5,1.5H2c-0.83,0-1.5-0.67-1.5-1.5v-6
			C0.5,1.23,1.17,0.56,2,0.56z"/>
	</g>
	<g id="Rectangle_472" transform="translate(18.378 126)">
		<path class="st0" d="M2,0.06h7c1.1,0,2,0.9,2,2v8c0,1.1-0.9,2-2,2H2c-1.1,0-2-0.9-2-2v-8C0,0.95,0.9,0.06,2,0.06z"/>
		<path class="st1" d="M2,0.56h7c0.83,0,1.5,0.67,1.5,1.5v8c0,0.83-0.67,1.5-1.5,1.5H2c-0.83,0-1.5-0.67-1.5-1.5v-8
			C0.5,1.23,1.17,0.56,2,0.56z"/>
	</g>
	<g id="Rectangle_474" transform="translate(31.378 114)">
		<path class="st0" d="M2,0.06h7c1.1,0,2,0.9,2,2v8c0,1.1-0.9,2-2,2H2c-1.1,0-2-0.9-2-2v-8C0,0.95,0.9,0.06,2,0.06z"/>
		<path class="st2" d="M2,0.56h7c0.83,0,1.5,0.67,1.5,1.5v8c0,0.83-0.67,1.5-1.5,1.5H2c-0.83,0-1.5-0.67-1.5-1.5v-8
			C0.5,1.23,1.17,0.56,2,0.56z"/>
	</g>
</g>
</svg>
