<?xml version="1.0" encoding="UTF-8"?>
<svg width="144px" height="72px" viewBox="0 0 144 72" version="1.1" xmlns="http://www.w3.org/2000/svg" xmlns:xlink="http://www.w3.org/1999/xlink">
    <!-- Generator: Sketch 54 (76480) - https://sketchapp.com -->
    <title>Logo</title>
    <desc>Created with Sketch.</desc>
    <defs>
        <linearGradient x1="-2.22044605e-14%" y1="50%" x2="100%" y2="50%" id="linearGradient-1">
            <stop stop-color="#00B8E2" stop-opacity="0.0185405344" offset="0%"></stop>
            <stop stop-color="#0081C2" offset="100%"></stop>
        </linearGradient>
        <linearGradient x1="-2.22044605e-14%" y1="50%" x2="100%" y2="50%" id="linearGradient-2">
            <stop stop-color="#F8644C" stop-opacity="0" offset="0%"></stop>
            <stop stop-color="#EE3425" offset="100%"></stop>
        </linearGradient>
    </defs>
    <g id="Direction-4" stroke="none" stroke-width="1" fill="none" fill-rule="evenodd">
        <g id="BAS---Home" transform="translate(-119.000000, -20.000000)">
            <g id="Navigation" transform="translate(0.000000, 20.000000)">
                <g id="Logo" transform="translate(119.000000, 0.000000)">
                    <g id="Mark" transform="translate(98.801252, 0.000000)" fill-rule="nonzero">
                        <path d="M25.34129,0.032496005 L28.3687779,1.47654096 L27.3560736,4.82282556 C23.2173877,6.45826532 19.2237765,8.43863332 15.37524,10.7639296 C11.5267035,13.0892258 6.43177131,16.4312366 0.0904434647,20.7899618 C4.97005103,14.6607081 9.09302536,10.2688411 12.4593664,7.61436101 C15.8257075,4.9598809 20.1196821,2.43259256 25.34129,0.032496005 Z" id="Path-3" fill="url(#linearGradient-1)"></path>
                        <path d="M42.3324071,3.77065028 L44.9238136,5.91097462 L43.1390529,8.91060434 C38.7312722,9.48698725 34.3815742,10.4334732 30.0899588,11.7500621 C25.7983433,13.066651 19.3671709,15.4077426 10.7964414,18.773337 C17.3583775,13.6472527 23.0981245,10.0501826 28.0156824,7.98212659 C32.9332403,5.91407062 37.7054819,4.51024518 42.3324071,3.77065028 Z" id="Path-3" fill="url(#linearGradient-2)"></path>
                    </g>
                    <path d="M10.0925415,58.4697272 C9.86976614,58.3048512 9.57644963,58.1624604 9.21258319,58.0425505 C8.84871674,57.9226407 8.42173701,57.8626867 7.93163119,57.8626867 C7.47122875,57.8626867 7.06652622,57.9451235 6.71751147,58.1099995 C6.36849671,58.2748755 6.07889307,58.4884617 5.84869185,58.7507645 C5.61849063,59.0130673 5.44398587,59.3090902 5.32517234,59.6388423 C5.2063588,59.9685943 5.14695293,60.2983415 5.14695293,60.6280935 C5.14695293,61.0327892 5.25462608,61.3737777 5.46997561,61.6510692 C5.68532513,61.9283607 5.95636444,62.1831653 6.28310166,62.4154906 C6.60983887,62.6478159 6.96627413,62.8726435 7.35241811,63.0899801 C7.73856209,63.3073167 8.09499735,63.5583741 8.42173456,63.84316 C8.74847178,64.1279459 9.01951109,64.4689343 9.23486061,64.8661357 C9.45021014,65.263337 9.55788329,65.7542106 9.55788329,66.338771 C9.55788329,66.9233315 9.44649728,67.5341131 9.2237219,68.1711341 C9.00094653,68.8081551 8.65193701,69.3964539 8.17668287,69.9360482 C7.70142874,70.4756425 7.09623139,70.9215505 6.36107265,71.2737857 C5.62591391,71.6260208 4.73853865,71.8021357 3.69892023,71.8021357 C2.83752212,71.8021357 2.10237441,71.7234461 1.49345505,71.5660644 C0.884535691,71.4086828 0.394437218,71.1950966 0.0231449271,70.9252994 L1.07018395,69.0367289 C1.27810764,69.2016049 1.58256275,69.3477429 1.98355842,69.4751471 C2.3845541,69.6025513 2.8598011,69.6662524 3.40931369,69.6662524 C3.86971613,69.6662524 4.28927013,69.5913099 4.66798827,69.4414226 C5.0467064,69.2915353 5.37343872,69.0816962 5.64819501,68.8118991 C5.92295131,68.542102 6.13458474,68.2273434 6.28310166,67.8676138 C6.43161857,67.5078843 6.50587592,67.1256774 6.50587592,66.7209817 C6.50587592,66.316286 6.40191564,65.9752975 6.19399195,65.698006 C5.98606827,65.4207145 5.72988043,65.1696571 5.42542075,64.9448261 C5.12096107,64.7199952 4.78680302,64.4989147 4.42293658,64.2815781 C4.05907013,64.0642416 3.72491208,63.8131841 3.42045241,63.5283982 C3.11599273,63.2436124 2.85980489,62.9026239 2.65188121,62.5054225 C2.44395752,62.1082212 2.33999724,61.6248419 2.33999724,61.0552702 C2.33999724,60.4856984 2.45509612,59.8936525 2.68529734,59.2791146 C2.91549857,58.6645766 3.25708235,58.1062548 3.71005894,57.6041324 C4.16303554,57.1020099 4.73110422,56.689826 5.41428204,56.3675684 C6.09745986,56.0453107 6.89943918,55.8841842 7.82024406,55.8841842 C8.56282864,55.8841842 9.2014418,55.966621 9.7361027,56.131497 C10.2707636,56.2963731 10.7088819,56.5062121 11.0504708,56.7610205 L10.0925415,58.4697272 Z M19.3153959,62.9888067 C19.3153959,62.2693476 19.1594555,61.7410028 18.84757,61.4037564 C18.5356844,61.06651 18.0975661,60.8978893 17.5332018,60.8978893 C16.9836892,60.8978893 16.4676007,61.06651 15.9849207,61.4037564 C15.5022407,61.7410028 15.0901125,62.2393706 14.7485236,62.8988747 C14.585155,63.1986493 14.4403531,63.5358907 14.3141138,63.9106089 C14.1878744,64.2853272 14.0802012,64.6900168 13.9910911,65.12469 L19.1594539,64.3602686 C19.2188607,64.1054602 19.2597022,63.8656441 19.2819798,63.6408132 C19.3042573,63.4159822 19.3153959,63.1986489 19.3153959,62.9888067 Z M21.7436354,63.3035684 C21.7436354,63.9630725 21.6545265,64.6825208 21.4763062,65.4619347 L13.9242588,66.5186349 C13.8797037,66.9832855 13.8834166,67.4216993 13.9353975,67.8338894 C13.9873784,68.2460794 14.1099031,68.6058036 14.302975,68.9130725 C14.496047,69.2203415 14.7670863,69.4639047 15.1161011,69.6437694 C15.4651159,69.8236342 15.9143728,69.9135652 16.4638854,69.9135652 C17.1173598,69.9135652 17.7225572,69.8311285 18.2794956,69.6662524 C18.836434,69.5013764 19.285691,69.3365028 19.6272799,69.1716268 L19.9391638,70.9252994 C19.4787614,71.1651191 18.903267,71.3712111 18.2126633,71.5435814 C17.5220597,71.7159518 16.7534962,71.8021357 15.9069497,71.8021357 C14.496039,71.8021357 13.378466,71.423676 12.5541971,70.6667451 C11.7299282,69.9098143 11.3178,68.7894235 11.3178,67.3055393 C11.3178,66.8558774 11.3549286,66.3912337 11.4291871,65.9115944 C11.5034455,65.431955 11.6148316,64.95607 11.7633485,64.483925 C11.9118654,64.01178 12.0863702,63.5546306 12.286868,63.1124631 C12.4873658,62.6702955 12.7138507,62.269353 12.9663295,61.9096235 C13.5455455,61.0552659 14.2472774,60.3957717 15.0715462,59.9311211 C15.8958151,59.4664704 16.8128933,59.2341486 17.8228084,59.2341486 C19.0554988,59.2341486 20.0171314,59.5826313 20.707735,60.2796073 C21.3983387,60.9765832 21.7436354,61.9845602 21.7436354,63.3035684 Z M29.5407345,61.2801 C29.0506287,61.1302127 28.5790945,61.0590173 28.1261179,61.0665117 C27.6731413,61.074006 27.2981418,61.1526957 27.0011079,61.302583 L24.9070299,71.5773059 L22.1891839,71.5773059 L24.5283136,60.1109849 C25.0926779,59.8561765 25.7795583,59.6463374 26.5889755,59.4814614 C27.3983927,59.3165854 28.3154709,59.2341486 29.3402377,59.2341486 C29.563013,59.2341486 29.7635079,59.2378957 29.9417282,59.2453901 C30.1199485,59.2528845 30.3055918,59.2641258 30.4986638,59.2791146 L29.5407345,61.2801 Z M34.9764265,71.5773059 L32.4145225,71.5773059 L30.9664898,59.4589784 L33.7957229,59.4589784 L34.3081037,67.3055393 C34.3378071,67.7701899 34.3378071,68.1523968 34.3081037,68.4521714 L34.2635488,68.946797 L34.3081037,68.946797 C34.3526587,68.781921 34.4046389,68.6170474 34.4640457,68.4521714 C34.5234524,68.3022841 34.5865712,68.1299163 34.6534038,67.9350628 C34.7202364,67.7402093 34.8130581,67.5303702 34.9318716,67.3055393 L38.6967566,59.4589784 L41.3254929,59.4589784 L34.9764265,71.5773059 Z M43.1522418,71.5773059 L40.4343958,71.5773059 L42.9294676,59.4589784 L45.6473136,59.4589784 L43.1522418,71.5773059 Z M46.5161332,55.7717693 C46.5161332,56.2064425 46.3342027,56.5886494 45.9703362,56.9184014 C45.6064698,57.2481535 45.1869158,57.413027 44.7116617,57.413027 C44.3403694,57.413027 44.0396271,57.3043604 43.8094259,57.0870238 C43.5792247,56.8696872 43.4641258,56.6036412 43.4641258,56.2888779 C43.4641258,55.8542048 43.6460563,55.4719979 44.0099227,55.1422458 C44.3737892,54.8124938 44.7933432,54.6476202 45.2685973,54.6476202 C45.6398896,54.6476202 45.9406318,54.760034 46.1708331,54.9848649 C46.4010343,55.2096959 46.5161332,55.4719947 46.5161332,55.7717693 Z M54.3577872,61.5723788 C54.2389736,61.4824464 54.0570431,61.3775269 53.8119902,61.257617 C53.5669373,61.1377072 53.2736208,61.0777532 52.9320319,61.0777532 C51.8033033,61.0777532 50.8973637,61.6772934 50.2141859,62.8763917 C50.0508173,63.1611776 49.9023026,63.4834305 49.7686374,63.84316 C49.6349722,64.2028895 49.5198733,64.573855 49.4233373,64.9560676 C49.3268013,65.3382802 49.2525439,65.7204871 49.200563,66.1026997 C49.1485821,66.4849123 49.122592,66.8408893 49.122592,67.1706414 C49.122592,67.9950215 49.2785324,68.6357801 49.590418,69.0929364 C49.9023035,69.5500926 50.3552733,69.7786673 50.949341,69.7786673 C51.2909299,69.7786673 51.6288008,69.7224604 51.9629638,69.610045 C52.2971269,69.4976295 52.5607405,69.3664801 52.7538125,69.2165928 L53.043419,70.9252994 C52.7612369,71.1651191 52.3676729,71.3712111 51.8627154,71.5435814 C51.3577579,71.7159518 50.7859764,71.8021357 50.1473536,71.8021357 C49.5829893,71.8021357 49.0669008,71.6934691 48.5990725,71.4761325 C48.1312442,71.2587959 47.7339674,70.9477844 47.4072302,70.5430887 C47.080493,70.138393 46.828018,69.6550137 46.6497977,69.0929364 C46.4715774,68.530859 46.3824686,67.9050889 46.3824686,67.2156073 C46.3824686,66.7659454 46.4195973,66.2975547 46.4938557,65.8104209 C46.5681142,65.3232872 46.6757874,64.8436551 46.8168784,64.3715101 C46.9579695,63.8993651 47.1287614,63.4422157 47.3292592,63.0000482 C47.5297571,62.5578806 47.756242,62.1569381 48.0087207,61.7972086 C48.5879367,60.942851 49.2711043,60.3020924 50.0582439,59.8749136 C50.8453836,59.4477348 51.6696401,59.2341486 52.5310382,59.2341486 C53.1845126,59.2341486 53.7562942,59.3315739 54.2464,59.5264274 C54.7365058,59.7212809 55.0780896,59.9161314 55.2711616,60.1109849 L54.3577872,61.5723788 Z M62.8900413,62.9888067 C62.8900413,62.2693476 62.7341009,61.7410028 62.4222154,61.4037564 C62.1103299,61.06651 61.6722115,60.8978893 61.1078473,60.8978893 C60.5583347,60.8978893 60.0422461,61.06651 59.5595661,61.4037564 C59.0768862,61.7410028 58.6647579,62.2393706 58.323169,62.8988747 C58.1598004,63.1986493 58.0149986,63.5358907 57.8887592,63.9106089 C57.7625198,64.2853272 57.6548467,64.6900168 57.5657365,65.12469 L62.7340994,64.3602686 C62.7935061,64.1054602 62.8343477,63.8656441 62.8566252,63.6408132 C62.8789027,63.4159822 62.8900413,63.1986489 62.8900413,62.9888067 Z M65.3182808,63.3035684 C65.3182808,63.9630725 65.229172,64.6825208 65.0509517,65.4619347 L57.4989042,66.5186349 C57.4543492,66.9832855 57.458062,67.4216993 57.5100429,67.8338894 C57.5620239,68.2460794 57.6845485,68.6058036 57.8776205,68.9130725 C58.0706925,69.2203415 58.3417318,69.4639047 58.6907465,69.6437694 C59.0397613,69.8236342 59.4890182,69.9135652 60.0385308,69.9135652 C60.6920052,69.9135652 61.2972026,69.8311285 61.854141,69.6662524 C62.4110795,69.5013764 62.8603364,69.3365028 63.2019253,69.1716268 L63.5138093,70.9252994 C63.0534068,71.1651191 62.4779124,71.3712111 61.7873088,71.5435814 C61.0967051,71.7159518 60.3281416,71.8021357 59.4815952,71.8021357 C58.0706844,71.8021357 56.9531114,71.423676 56.1288425,70.6667451 C55.3045736,69.9098143 54.8924454,68.7894235 54.8924454,67.3055393 C54.8924454,66.8558774 54.9295741,66.3912337 55.0038325,65.9115944 C55.078091,65.431955 55.189477,64.95607 55.3379939,64.483925 C55.4865108,64.01178 55.6610156,63.5546306 55.8615134,63.1124631 C56.0620113,62.6702955 56.2884962,62.269353 56.5409749,61.9096235 C57.1201909,61.0552659 57.8219228,60.3957717 58.6461917,59.9311211 C59.4704606,59.4664704 60.3875388,59.2341486 61.3974538,59.2341486 C62.6301442,59.2341486 63.5917768,59.5826313 64.2823805,60.2796073 C64.9729841,60.9765832 65.3182808,61.9845602 65.3182808,63.3035684 Z M73.6723156,61.5948618 C73.4940953,61.4299857 73.2416203,61.2950892 72.9148831,61.1901681 C72.5881459,61.085247 72.2317106,61.0327872 71.8455666,61.0327872 C71.5485328,61.0327872 71.2737806,61.085247 71.0213019,61.1901681 C70.7688231,61.2950892 70.5460511,61.43748 70.3529791,61.6173447 C70.1599071,61.7972095 70.0113924,62.0033014 69.9074306,62.2356268 C69.8034687,62.4679521 69.7514886,62.7190095 69.7514886,62.9888067 C69.7514886,63.3185587 69.8405974,63.5883518 70.0188177,63.798194 C70.197038,64.0080362 70.4235229,64.1916454 70.6982792,64.3490271 C70.9730355,64.5064088 71.266352,64.6637881 71.5782375,64.8211697 C71.890123,64.9785514 72.1834396,65.1659077 72.4581958,65.3832443 C72.7329521,65.6005809 72.959437,65.8666268 73.1376573,66.1813902 C73.3158776,66.4961535 73.4049865,66.8933489 73.4049865,67.3729882 C73.4049865,67.94256 73.2936004,68.4933875 73.0708251,69.0254874 C72.8480497,69.5575873 72.5176045,70.0297252 72.0794796,70.4419153 C71.6413547,70.8541054 71.102989,71.1838525 70.4643662,71.4311665 C69.8257435,71.6784806 69.0980215,71.8021357 68.2811785,71.8021357 C67.6425557,71.8021357 67.0373584,71.719699 66.4655682,71.5548229 C65.8937781,71.3899469 65.4445212,71.1801078 65.117784,70.9252994 L66.1425456,69.2390758 C66.3356175,69.3889631 66.6177955,69.5313539 66.9890877,69.6662524 C67.36038,69.801151 67.7910726,69.8685993 68.2811785,69.8685993 C68.6227674,69.8685993 68.9346482,69.8048981 69.2168304,69.6774939 C69.4990125,69.5500897 69.7403489,69.3852162 69.9408467,69.1828683 C70.1413445,68.9805204 70.297285,68.7481986 70.4086726,68.4858958 C70.5200603,68.2235931 70.5757533,67.9575471 70.5757533,67.68775 C70.5757533,67.3579979 70.4903574,67.0882048 70.3195629,66.8783626 C70.1487685,66.6685204 69.9371351,66.4811641 69.6846563,66.3162881 C69.4321775,66.151412 69.1537125,65.9940327 68.8492528,65.8441454 C68.5447931,65.6942581 68.2663281,65.5143961 68.0138493,65.3045538 C67.7613706,65.0947116 67.5497372,64.8324128 67.3789427,64.5176495 C67.2081482,64.2028861 67.1227523,63.8056908 67.1227523,63.3260514 C67.1227523,62.8164346 67.2267126,62.3143197 67.4346363,61.8196916 C67.6425599,61.3250635 67.9395893,60.8866497 68.3257333,60.5044371 C68.7118773,60.1222245 69.1834114,59.8149601 69.7403499,59.5826348 C70.2972883,59.3503095 70.9321886,59.2341486 71.6450698,59.2341486 C72.2836925,59.2341486 72.8480484,59.3128383 73.3381542,59.4702199 C73.82826,59.6276016 74.2515269,59.8411878 74.6079675,60.1109849 L73.6723156,61.5948618 Z" id="Services" fill="#F25A4C"></path>
                    <path d="M13.7571781,39.2533261 C13.7571781,38.1291713 13.3394805,37.3085507 12.5040729,36.7914395 C11.6686652,36.2743283 10.3821567,36.0157766 8.64450882,36.0157766 L8.36047164,36.0157766 C8.21566765,36.0157766 8.05972722,36.0213973 7.89264569,36.0326388 C7.72556416,36.0438804 7.56962374,36.0495011 7.42481974,36.0495011 L7.1741987,36.0495011 L5.43655947,44.4131705 C5.77072253,44.5480691 6.13272708,44.6492415 6.52258399,44.7166908 C6.91244089,44.7841401 7.39697007,44.8178642 7.97618604,44.8178642 C8.91184261,44.8178642 9.75837634,44.6829677 10.5158126,44.4131705 C11.2732489,44.1433734 11.9192878,43.6937182 12.4539487,43.0641916 C12.8772219,42.5470804 13.2002413,41.9456666 13.4230167,41.2599322 C13.6457921,40.5741979 13.7571781,39.9053358 13.7571781,39.2533261 Z M15.3611528,28.6638414 C15.3611528,27.7420345 15.0604105,27.0675518 14.458917,26.640373 C13.8574235,26.2131942 12.9886126,25.999608 11.8524582,25.999608 C11.2732422,25.999608 10.7664358,26.0389528 10.3320238,26.1176436 C9.89761187,26.1963345 9.50219151,26.2918862 9.14575091,26.4043017 L7.57519237,33.9248593 L7.82581341,33.9248593 C7.97061741,33.9248593 8.12655783,33.9304799 8.29363936,33.9417215 C8.46072089,33.952963 8.61666132,33.9585837 8.76146531,33.9585837 L9.04550249,33.9585837 C10.1816569,33.9585837 11.1451459,33.8349286 11.9359985,33.5876145 C12.7268511,33.3403005 13.3784593,32.969335 13.8908427,32.4747069 C14.358671,32.025045 14.7206755,31.446114 14.9768672,30.7378965 C15.2330589,30.029679 15.3611528,29.3383342 15.3611528,28.6638414 Z M19.4713379,28.4614945 C19.4713379,29.2484029 19.3209668,29.9959545 19.02022,30.704172 C18.7194733,31.4123895 18.3184836,32.0475274 17.817239,32.6096048 C17.3159944,33.1716822 16.7367871,33.6438201 16.0795998,34.0260327 C15.4224124,34.4082453 14.7262498,34.6780384 13.9910911,34.83542 L13.9910911,34.902869 C14.525752,35.0152845 15.0269891,35.2120086 15.4948173,35.4930473 C15.9626456,35.774086 16.3803432,36.1225687 16.7479226,36.5385059 C17.1155019,36.9544432 17.4051056,37.4265811 17.6167422,37.9549338 C17.8283788,38.4832866 17.9341955,39.0622176 17.9341955,39.6917442 C17.9341955,40.5685849 17.7281314,41.4735159 17.3159969,42.4065643 C16.9038625,43.3396128 16.4081947,44.1208886 15.8289787,44.7504153 C14.9155997,45.6947052 13.773893,46.3804293 12.4038245,46.8076081 C11.0337559,47.2347869 9.47992099,47.4483731 7.74227307,47.4483731 C6.33878821,47.4483731 5.05227971,47.3303387 3.882709,47.0942662 C2.71313828,46.8581937 1.77192644,46.5378144 1.05904524,46.1331187 L5.40314333,24.8867003 C6.24968975,24.4820046 7.2688718,24.1616253 8.46072006,23.9255528 C9.65256831,23.6894804 10.9167996,23.5714459 12.2534518,23.5714459 C14.6371484,23.5714459 16.4360325,24.0267217 17.6501583,24.9372871 C18.8642841,25.8478524 19.4713379,27.0225765 19.4713379,28.4614945 Z M23.269639,47.1111284 L19.2262862,47.1111284 L24.6731169,20.6374167 L28.7164697,20.6374167 L23.269639,47.1111284 Z M40.8353895,46.1331187 C40.0779532,46.5153313 39.092187,46.8300899 37.8780612,47.0774039 C36.6639354,47.324718 35.3217339,47.4483731 33.8514164,47.4483731 C31.7573279,47.4483731 30.2146316,47.071787 29.2232812,46.3186033 C28.2319308,45.5654196 27.736263,44.4469024 27.736263,42.9630182 C27.736263,42.4234239 27.8030946,41.8501136 27.9367598,41.24307 L30.4763864,28.9336372 L34.5531554,28.9336372 L31.9466965,41.4791413 C31.8798639,41.8613539 31.8464481,42.2098367 31.8464481,42.5246 C31.8464481,43.1091605 32.0246657,43.6037811 32.3811063,44.0084768 C32.7375469,44.4131725 33.405863,44.6155174 34.3860747,44.6155174 C35.4999515,44.6155174 36.4244555,44.4581381 37.1596142,44.1433747 L40.3007313,28.9336372 L44.3440841,28.9336372 L40.8353895,46.1331187 Z M56.8974137,34.2283795 C56.8974137,33.149191 56.6635031,32.3566738 56.1956748,31.8508041 C55.7278465,31.3449345 55.070669,31.0920035 54.2241226,31.0920035 C53.3998537,31.0920035 52.6257209,31.3449345 51.9017009,31.8508041 C51.177681,32.3566738 50.5594886,33.1042254 50.0471052,34.0934816 C49.8020523,34.5431435 49.5848496,35.0490056 49.3954905,35.6110829 C49.2061314,36.1731603 49.0446217,36.7801948 48.9109565,37.4322045 L56.6635008,36.2855724 C56.7526109,35.9033598 56.8138732,35.5436357 56.8472895,35.2063892 C56.8807058,34.8691428 56.8974137,34.5431428 56.8974137,34.2283795 Z M60.5397729,34.7005221 C60.5397729,35.6897783 60.4061097,36.7689507 60.1387792,37.9380716 L48.8107081,39.5231219 C48.7438754,40.2200978 48.7494447,40.8777185 48.8274161,41.4960036 C48.9053875,42.1142887 49.0891744,42.6538748 49.3787824,43.1147783 C49.6683904,43.5756817 50.0749494,43.9410265 50.5984715,44.2108237 C51.1219936,44.4806208 51.795879,44.6155174 52.6201479,44.6155174 C53.6003596,44.6155174 54.5081556,44.4918622 55.3435633,44.2445482 C56.1789709,43.9972341 56.8528563,43.7499238 57.3652397,43.5026097 L57.8330656,46.1331187 C57.142462,46.4928482 56.2792203,46.8019861 55.2433148,47.0605417 C54.2074093,47.3190973 53.0545641,47.4483731 51.7847444,47.4483731 C49.6683784,47.4483731 47.9920188,46.8806835 46.7556155,45.7452872 C45.5192122,44.6098909 44.9010198,42.9293048 44.9010198,40.7034784 C44.9010198,40.0289856 44.9567128,39.3320201 45.0681005,38.6125611 C45.1794882,37.893102 45.3465672,37.1792745 45.5693426,36.471057 C45.7921179,35.7628395 46.0538751,35.0771154 46.3546218,34.4138641 C46.6553686,33.7506128 46.9950959,33.1491991 47.3738141,32.6096048 C48.242638,31.3280684 49.2952359,30.338827 50.5316392,29.6418511 C51.7680426,28.9448752 53.1436599,28.5963924 54.6585324,28.5963924 C56.507568,28.5963924 57.9500169,29.1191165 58.9859224,30.1645805 C60.0218279,31.2100444 60.5397729,32.7220098 60.5397729,34.7005221 Z M72.725525,30.4849629 C72.6586923,29.7205377 72.6252765,29.0572964 72.6252765,28.495219 L72.6252765,27.6858316 L72.5584443,27.6858316 C72.4693341,27.9331457 72.3690867,28.2029388 72.257699,28.495219 C72.1463113,28.7425331 72.0237867,29.0404296 71.8901215,29.3889176 C71.7564563,29.7374055 71.5893772,30.1027503 71.3888794,30.4849629 L67.2786943,38.6462855 L73.3938477,38.6462855 L72.725525,30.4849629 Z M74.0287544,47.1111284 L73.4940962,41.1418966 L66.0757133,41.1418966 L63.0348446,47.1111284 L58.9914918,47.1111284 L71.3554633,23.9086906 L75.4322322,23.9086906 L78.2726041,47.1111284 L74.0287544,47.1111284 Z M83.9087929,47.1111284 L79.86544,47.1111284 L85.3122707,20.6374167 L89.3556235,20.6374167 L83.9087929,47.1111284 Z M91.7170307,47.1111284 L87.6736779,47.1111284 L93.1205085,20.6374167 L97.1638614,20.6374167 L91.7170307,47.1111284 Z M99.6589331,54.3618902 L95.3482512,54.3618902 L99.7591815,47.0774039 L97.5537163,28.9336372 L101.76415,28.9336372 L102.465889,40.7372029 C102.488166,41.0969324 102.493736,41.4285531 102.482597,41.7320749 C102.471458,42.0355967 102.45475,42.3110104 102.432473,42.5583245 C102.410195,42.8281216 102.387918,43.0754319 102.36564,43.3002629 L102.432473,43.3002629 C102.499305,43.0754319 102.577275,42.8281216 102.666386,42.5583245 C102.755496,42.3110104 102.855743,42.0355967 102.967131,41.7320749 C103.078519,41.4285531 103.22332,41.0969324 103.401541,40.7372029 L109.1157,28.9336372 L113.058805,28.9336372 L99.6589331,54.3618902 Z" id="BlueAlly" fill="#0081C2"></path>
                </g>
            </g>
        </g>
    </g>
</svg>